# xmcd CD database file
#
# Track frame offsets:
#	150
#	29731
#	60000
#	82094
#	113872
#	143200
#	168053
#	194406
#	221766
#
# Disc length: 3231 seconds
#
# Revision: 0
# Processed by: cddbd v1.5.1PL0 Copyright (c) Steve Scherf et al.
# Submitted via: CDex 1.51
#
DISCID=7c0c9d09
DTITLE=Ricardo Nolé - Interiores
DYEAR=2005
DGENRE=Jazz
TTITLE0=Los Mareados
TTITLE1=Nostalgias
TTITLE2=La Ultima Curda
TTITLE3=Candombe pa' Venado
TTITLE4=A la mama vieja
TTITLE5=Viticunyamba
TTITLE6=Carinhoso
TTITLE7=Chovendo na roseira
TTITLE8=Paraná
EXTD=YEAR: 2005
EXTT0=
EXTT1=
EXTT2=
EXTT3=
EXTT4=
EXTT5=
EXTT6=
EXTT7=
EXTT8=
PLAYORDER=
